<?xml version="1.0" encoding="UTF-8" standalone="no"?>
<svg
   xmlns:dc="http://purl.org/dc/elements/1.1/"
   xmlns:cc="http://creativecommons.org/ns#"
   xmlns:rdf="http://www.w3.org/1999/02/22-rdf-syntax-ns#"
   xmlns:svg="http://www.w3.org/2000/svg"
   xmlns="http://www.w3.org/2000/svg"
   xmlns:sodipodi="http://sodipodi.sourceforge.net/DTD/sodipodi-0.dtd"
   xmlns:inkscape="http://www.inkscape.org/namespaces/inkscape"
   id="Layer_1"
   viewBox="0 0 1140.3489 378.73047"
   width="2965.6426"
   height="984.85468"
   version="1.1"
   sodipodi:docname="gitlab-1.svg"
   inkscape:version="0.92.3 (2405546, 2018-03-11)">
  <metadata
     id="metadata4183">
    <rdf:RDF>
      <cc:Work
         rdf:about="">
        <dc:format>image/svg+xml</dc:format>
        <dc:type
           rdf:resource="http://purl.org/dc/dcmitype/StillImage" />
        <dc:title>wm_no_bg</dc:title>
      </cc:Work>
    </rdf:RDF>
  </metadata>
  <defs
     id="defs4181" />
  <sodipodi:namedview
     pagecolor="#ffffff"
     bordercolor="#666666"
     borderopacity="1"
     objecttolerance="10"
     gridtolerance="10"
     guidetolerance="10"
     inkscape:pageopacity="0"
     inkscape:pageshadow="2"
     inkscape:window-width="1920"
     inkscape:window-height="1017"
     id="namedview4179"
     showgrid="false"
     inkscape:snap-object-midpoints="true"
     fit-margin-left="100"
     fit-margin-right="100"
     fit-margin-top="50"
     fit-margin-bottom="50"
     inkscape:zoom="0.1136"
     inkscape:cx="260.89033"
     inkscape:cy="141.38732"
     inkscape:window-x="1912"
     inkscape:window-y="-8"
     inkscape:window-maximized="1"
     inkscape:current-layer="Layer_1" />
  <style
     id="style4156">.st0{fill:#8c929d}.st1{fill:#e24329}.st2{fill:#fc6d26}.st3{fill:#fca326}</style>
  <title
     id="title4158">wm_no_bg</title>
  <g
     id="word"
     transform="matrix(1.3219089,0,0,1.3219089,489.50757,104.28447)">
    <path
       id="Fill-2"
       class="st0"
       d="m 237,3.1 h -16.4 l 0.1,121.9 h 66.2 V 109.9 H 237 Z"
       inkscape:connector-curvature="0"
       style="fill:#8c929d" />
    <path
       id="Fill-3"
       class="st0"
       d="m 350,103.5 c -4.1,4.3 -11,8.6 -20.3,8.6 -12.5,0 -17.5,-6.1 -17.5,-14.1 0,-12.1 8.4,-17.9 26.2,-17.9 3.3,0 8.7,0.4 11.5,0.9 v 22.5 z M 333.1,29.7 c -13.2,0 -25.3,4.7 -34.8,12.5 l 5.8,10 c 6.7,-3.9 14.9,-7.8 26.6,-7.8 13.4,0 19.4,6.9 19.4,18.4 v 6 c -2.6,-0.6 -8,-0.9 -11.3,-0.9 -28.7,0 -43.2,10 -43.2,31.1 0,18.8 11.5,28.3 29,28.3 11.8,0 23.1,-5.4 27,-14.1 l 3,11.9 H 366 V 62.6 c 0,-19.7 -8.6,-32.9 -32.9,-32.9 z"
       inkscape:connector-curvature="0"
       style="fill:#8c929d" />
    <path
       id="Fill-5"
       class="st0"
       d="m 418.8,112.7 c -6.1,0 -11.5,-0.7 -15.6,-2.6 V 53.6 c 5.6,-4.7 12.5,-8 21.2,-8 15.8,0 22,11.2 22,29.2 0,25.8 -9.9,37.9 -27.6,37.9 m 6.9,-83 c -14.6,0 -22.5,10 -22.5,10 V 23.9 L 403.1,3.1 h -16 l 0.1,118.9 c 8,3.3 19,5.2 30.9,5.2 30.5,0 45.2,-19.5 45.2,-53.2 0,-26.7 -13.6,-44.3 -37.6,-44.3"
       inkscape:connector-curvature="0"
       style="fill:#8c929d" />
    <path
       id="Fill-7"
       class="st0"
       d="m 59,16.3 c 14.5,0 23.8,4.8 30,9.7 L 96,13.8 C 86.4,5.4 73.5,0.8 59.8,0.8 25,0.8 0.6,22 0.6,64.8 c 0,44.8 26.3,62.3 56.4,62.3 15.1,0 27.9,-3.5 36.3,-7.1 L 93,72.1 V 57 H 48.3 v 15.1 h 28.5 l 0.3,36.4 c -3.7,1.9 -10.2,3.3 -19,3.3 C 33.9,111.8 17.7,96.6 17.7,64.5 17.7,32.1 34.5,16.3 59,16.3"
       inkscape:connector-curvature="0"
       style="fill:#8c929d" />
    <path
       id="Fill-9"
       class="st0"
       d="m 174.2,3.1 h -16 l 0.1,20.5 v 70.6 c 0,19.7 8.6,32.9 32.9,32.9 3.4,0 6.7,-0.3 9.9,-0.9 v -14.4 c -2.3,0.4 -4.8,0.6 -7.4,0.6 -13.4,0 -19.3,-6.9 -19.3,-18.4 V 45.3 H 201 V 31.9 h -26.8 z"
       inkscape:connector-curvature="0"
       style="fill:#8c929d" />
    <path
       id="Fill-11"
       class="st0"
       d="m 117.6,124.9 h 16 v -93 h -16 z"
       inkscape:connector-curvature="0"
       style="fill:#8c929d" />
    <path
       id="Fill-13"
       class="st0"
       d="m 117.6,19.1 h 16 v -16 h -16 z"
       inkscape:connector-curvature="0"
       style="fill:#8c929d" />
  </g>
  <g
     id="logo"
     transform="translate(37.701054,18.402734)">
    <path
       id="Fill-14"
       class="st1"
       d="m 185.4,341.1 68,-209.3 h -136 z"
       inkscape:connector-curvature="0"
       style="fill:#e24329" />
    <path
       id="Fill-16"
       class="st2"
       d="m 185.4,341.1 -68,-209.3 H 22.1 Z"
       inkscape:connector-curvature="0"
       style="fill:#fc6d26" />
    <path
       id="Fill-18"
       class="st3"
       d="M 22.1,131.8 1.4,195.4 c -1.9,5.8 0.2,12.2 5.1,15.7 l 178.9,130 z"
       inkscape:connector-curvature="0"
       style="fill:#fca326" />
    <path
       id="Fill-20"
       class="st1"
       d="m 22.1,131.8 h 95.3 L 76.4,5.7 C 74.3,-0.8 65.1,-0.8 63,5.7 Z"
       inkscape:connector-curvature="0"
       style="fill:#e24329" />
    <path
       id="Fill-21"
       class="st2"
       d="m 185.4,341.1 68,-209.3 h 95.3 z"
       inkscape:connector-curvature="0"
       style="fill:#fc6d26" />
    <path
       id="Fill-22"
       class="st3"
       d="m 348.7,131.8 20.7,63.6 c 1.9,5.8 -0.2,12.2 -5.1,15.7 l -178.9,130 z"
       inkscape:connector-curvature="0"
       style="fill:#fca326" />
    <path
       id="Fill-23"
       class="st1"
       d="m 348.7,131.8 h -95.3 l 41,-126.1 c 2.1,-6.5 11.3,-6.5 13.4,0 z"
       inkscape:connector-curvature="0"
       style="fill:#e24329" />
  </g>
</svg>
